<svg width="14" height="15" viewBox="0 0 14 15" fill="none" xmlns="http://www.w3.org/2000/svg">
<g clip-path="url(#clip0_23_813)">
<path d="M0.0929687 0.592999L0 0.685968V1.1262C0 1.77151 0.0164062 1.78519 0.689062 1.78519H1.10742L2.09727 5.04183L3.08984 8.29847L2.70703 8.74691C2.24492 9.28558 2.17383 9.38948 2.08633 9.63558C2.00977 9.85433 1.99609 10.1715 2.05078 10.3711C2.16836 10.8059 2.49102 11.1422 2.92031 11.2735C3.09258 11.3282 3.18555 11.3282 7.78477 11.3282C12.9828 11.3282 12.6082 11.3418 12.6984 11.1504C12.7613 11.0219 12.7613 10.3492 12.6984 10.2207C12.6082 10.0293 13.0156 10.043 7.92695 10.0375L3.33047 10.0293L3.8582 9.40862L4.38867 8.78519H7.5332C10.9539 8.78519 10.8199 8.79066 11.1316 8.63206C11.3094 8.54456 11.4953 8.3723 11.6074 8.1973C11.7141 8.02777 13.9289 3.31917 13.9727 3.16331C13.9918 3.10042 14 2.93909 13.9945 2.7805C13.9891 2.55902 13.9727 2.48245 13.9152 2.35941C13.8168 2.15159 13.6254 1.96292 13.4039 1.85902L13.2207 1.77151H7.84219H2.46641L2.32148 1.29847C2.20391 0.912921 2.16016 0.806281 2.08086 0.713312C1.90586 0.508234 1.87031 0.500031 0.976172 0.500031H0.185937L0.0929687 0.592999Z" fill="#D31D1D"/>
<path d="M3.63672 11.9598C3.23477 12.0117 2.87109 12.266 2.68789 12.6242C2.58125 12.8348 2.54297 12.9906 2.54297 13.2313C2.54297 13.584 2.66602 13.882 2.91211 14.1309C3.16641 14.3852 3.45352 14.5 3.83086 14.5C4.79609 14.5 5.39219 13.4965 4.94648 12.6105C4.87813 12.4711 4.67031 12.2496 4.51719 12.1512C4.26016 11.9871 3.9457 11.9188 3.63672 11.9598Z" fill="#D31D1D"/>
<path d="M11.2684 11.9598C10.902 12.0035 10.5082 12.2742 10.3278 12.6051C10.0571 13.1082 10.1528 13.7426 10.5629 14.1473C10.8063 14.3879 11.0934 14.5 11.4571 14.5C11.9629 14.5 12.3758 14.2457 12.5946 13.8027C13.002 12.977 12.4715 12.0336 11.5528 11.9488C11.4926 11.9434 11.3641 11.9488 11.2684 11.9598Z" fill="#D31D1D"/>
</g>
<defs>
<clipPath id="clip0_23_813">
<rect width="14" height="14" fill="white" transform="translate(0 0.5)"/>
</clipPath>
</defs>
</svg>
