<svg width="170" height="170" viewBox="0 0 170 170" fill="none" xmlns="http://www.w3.org/2000/svg">
<g clip-path="url(#clip0_20_8)">
<path d="M91.6738 8.46684C87.125 9.46293 83.1074 11.2227 79.4551 13.8457C77.0977 15.5059 76.6992 16.0704 76.6992 17.7305C76.6992 18.5606 76.9316 19.0586 77.5625 19.5567C78.9902 20.6856 80.0195 20.4532 83.2402 18.295C88.1543 14.9746 92.5039 13.6133 98.3144 13.6133C102.764 13.6133 106.018 14.4102 110.234 16.502C112.924 17.8301 113.854 18.5606 116.709 21.4161C119.564 24.2715 120.295 25.2012 121.623 27.8907C125.475 35.5938 125.541 43.6621 121.889 51.2989C115.945 63.7832 100.904 69.5274 88.2539 64.2149C81.9121 61.5586 76.5664 56.2461 73.9434 49.9707C71.0879 43.1641 71.2539 35.4942 74.4082 28.6875C75.6035 26.1309 75.6367 24.8028 74.541 23.7403C73.6113 22.7774 72.2168 22.6778 71.0879 23.4746C70.125 24.1387 68.3652 27.8907 67.3359 31.4102C66.6719 33.7012 66.5723 34.7637 66.5723 39.8438C66.5723 44.9239 66.6719 45.9864 67.3359 48.2774C70.5234 59.3008 78.7246 67.5684 89.6816 70.7559C93.2012 71.752 100.771 72.0176 104.623 71.2207C116.344 68.8633 125.441 60.4629 129.027 48.6426C129.891 45.8868 129.957 45.1895 129.957 40.0098C129.99 33.9004 129.791 32.6719 127.865 27.6582C124.246 18.295 114.982 10.5918 104.855 8.50004C101.701 7.83598 94.6621 7.83598 91.6738 8.46684Z" fill="#D31D1D"/>
<path d="M101.867 36.4238L93.0087 45.2516C92.6192 45.6397 91.9894 45.6406 91.5988 45.2535L88.5527 42.2344C85.3652 39.1133 84.6016 38.5156 83.7383 38.5156C82.1777 38.5156 80.9492 39.7441 80.9492 41.3379C80.9492 42.5332 81.2148 42.8652 86.0625 47.7129C90.9102 52.5273 91.2422 52.793 92.4707 52.793C93.7656 52.793 94.0977 52.4941 104.656 41.9023C115.381 31.2109 115.547 31.0117 115.547 29.6836C115.547 27.9238 114.518 26.8945 112.725 26.8945C111.496 26.8945 111.098 27.2266 101.867 36.4238Z" fill="#D31D1D"/>
<path d="M0.664062 40.5077C0.0332031 41.1386 0 41.6034 0 47.8124C0 54.0214 0.0332031 54.4862 0.664062 55.1171C1.29492 55.7479 1.75977 55.7811 13.2812 55.7811C27.2598 55.7811 26.5625 55.9472 26.5625 52.4608V51.4686C26.5625 50.9164 27.0102 50.4686 27.5625 50.4686H30.6465H33.872C34.3658 50.4686 34.7857 50.8291 34.8604 51.3172L38.6816 76.2675C41.8027 96.4882 42.7988 102.232 43.2637 102.83C44.1602 103.992 46.5176 103.926 47.4473 102.73C47.8457 102.232 48.1445 101.369 48.1113 100.805C48.1113 100.24 46.9492 92.3046 45.5215 83.1737L43.1411 67.7165C43.0482 67.1134 43.5125 66.5684 44.1227 66.5643L57.6738 66.4725L70.2535 66.4157C71.1004 66.4119 71.5594 65.4229 71.0156 64.7737L70.1582 63.7499L68.2668 61.4573C68.0768 61.227 67.7939 61.0936 67.4954 61.0936H55.084C43.0977 61.0936 42.2012 61.0604 42.0352 60.496C41.9355 60.1972 41.4707 57.2421 41.0059 53.955C40.0098 47.1483 39.7109 45.953 38.8477 45.4882C38.5156 45.289 35.627 45.1561 32.4062 45.1561H27.5625C27.0102 45.1561 26.5625 44.7084 26.5625 44.1561V43.164C26.5625 39.6776 27.2598 39.8436 13.2812 39.8436C1.75977 39.8436 1.29492 39.8768 0.664062 40.5077ZM21.25 47.8124V49.4686C21.25 50.0209 20.8023 50.4686 20.25 50.4686H13.2812H6.3125C5.76022 50.4686 5.3125 50.0209 5.3125 49.4686V47.8124V46.1561C5.3125 45.6039 5.76022 45.1561 6.3125 45.1561H13.2812H20.25C20.8023 45.1561 21.25 45.6039 21.25 46.1561V47.8124Z" fill="#D31D1D"/>
<path d="M126.404 63.75L125.555 64.7642C125.01 65.4151 125.473 66.4062 126.322 66.4062H138.822H152.58C153.051 66.4062 153.401 66.8427 153.299 67.3027C153.199 67.834 150.975 82.1777 148.385 99.1777L143.767 129.308C143.692 129.796 143.272 130.156 142.778 130.156H98.2148C55.2832 130.156 52.8262 130.123 52.6602 129.559C52.5938 129.26 51.8965 124.877 51.1328 119.863C49.5391 109.305 49.4395 109.072 46.9824 109.072C45.6211 109.072 45.2891 109.205 44.6914 110.002L44.2631 110.602C44.1119 110.813 44.0491 111.075 44.0881 111.333L47.082 131.086C48.7754 142.176 50.3359 151.738 50.502 152.336C50.7012 152.9 51.1328 153.564 51.4648 153.73C51.7969 153.93 54.4199 154.062 57.2422 154.062C61.9902 154.062 62.4883 153.996 63.0859 153.398C63.9824 152.502 63.9824 150.311 63.0859 149.414C62.5215 148.85 61.9902 148.75 59.002 148.75H56.4419C55.9475 148.75 55.5273 148.389 55.4532 147.9L54.5859 142.176L53.7644 136.781C53.6725 136.177 54.1387 135.633 54.7495 135.631L100.605 135.469C126.438 135.369 147.787 135.17 147.986 135.037C148.219 134.904 148.551 134.207 148.75 133.543C149.281 131.65 159.375 65.4434 159.375 63.8496C159.375 62.8535 159.176 62.2227 158.711 61.7578C158.08 61.127 157.615 61.0938 143.338 61.0938H129.067C128.769 61.0938 128.486 61.2271 128.296 61.4574L126.404 63.75Z" fill="#D31D1D"/>
<path d="M64.4141 80.3516C63.7832 80.9824 63.75 81.4473 63.75 98.2812C63.75 115.115 63.7832 115.58 64.4141 116.211C64.8457 116.643 65.5098 116.875 66.4062 116.875C67.3027 116.875 67.9668 116.643 68.3984 116.211C69.0293 115.58 69.0625 115.115 69.0625 98.2812C69.0625 81.4473 69.0293 80.9824 68.3984 80.3516C67.9668 79.9199 67.3027 79.6875 66.4062 79.6875C65.5098 79.6875 64.8457 79.9199 64.4141 80.3516Z" fill="#D31D1D"/>
<path d="M85.6641 80.3516C85.0332 80.9824 85 81.4473 85 98.2812C85 115.115 85.0332 115.58 85.6641 116.211C86.0957 116.643 86.7598 116.875 87.6562 116.875C88.5527 116.875 89.2168 116.643 89.6484 116.211C90.2793 115.58 90.3125 115.115 90.3125 98.2812C90.3125 81.4473 90.2793 80.9824 89.6484 80.3516C89.2168 79.9199 88.5527 79.6875 87.6562 79.6875C86.7598 79.6875 86.0957 79.9199 85.6641 80.3516Z" fill="#D31D1D"/>
<path d="M106.914 80.3516C106.283 80.9824 106.25 81.4473 106.25 98.2812C106.25 115.115 106.283 115.58 106.914 116.211C107.346 116.643 108.01 116.875 108.906 116.875C109.803 116.875 110.467 116.643 110.898 116.211C111.529 115.58 111.562 115.115 111.562 98.2812C111.562 81.4473 111.529 80.9824 110.898 80.3516C110.467 79.9199 109.803 79.6875 108.906 79.6875C108.01 79.6875 107.346 79.9199 106.914 80.3516Z" fill="#D31D1D"/>
<path d="M128.164 80.3516C127.533 80.9824 127.5 81.4473 127.5 98.2812C127.5 115.115 127.533 115.58 128.164 116.211C128.596 116.643 129.26 116.875 130.156 116.875C131.053 116.875 131.717 116.643 132.148 116.211C132.779 115.58 132.812 115.115 132.812 98.2812C132.812 81.4473 132.779 80.9824 132.148 80.3516C131.717 79.9199 131.053 79.6875 130.156 79.6875C129.26 79.6875 128.596 79.9199 128.164 80.3516Z" fill="#D31D1D"/>
<path d="M75.4375 141.479C68.664 144.102 66.8047 153.764 72.0508 159.043C76.168 163.127 83.207 163.127 87.3242 159.043C92.6035 153.73 90.7109 144.035 83.8379 141.479C81.3808 140.549 77.8613 140.549 75.4375 141.479ZM82.2773 147.09C86.5937 149.713 84.7344 156.387 79.6875 156.387C76.8652 156.387 74.707 154.229 74.707 151.406C74.707 148.584 76.8652 146.426 79.6875 146.426C80.584 146.426 81.6133 146.691 82.2773 147.09Z" fill="#D31D1D"/>
<path d="M128.562 141.479C121.789 144.102 119.93 153.764 125.176 159.043C129.293 163.127 136.332 163.127 140.449 159.043C145.728 153.73 143.836 144.035 136.963 141.479C134.506 140.549 130.986 140.549 128.562 141.479ZM135.402 147.09C139.719 149.713 137.859 156.387 132.812 156.387C129.99 156.387 127.832 154.229 127.832 151.406C127.832 148.584 129.99 146.426 132.812 146.426C133.709 146.426 134.738 146.691 135.402 147.09Z" fill="#D31D1D"/>
<path d="M96.2891 149.414C95.8574 149.846 95.625 150.51 95.625 151.406C95.625 152.303 95.8574 152.967 96.2891 153.398C96.9199 154.029 97.3848 154.062 106.25 154.062C115.115 154.062 115.58 154.029 116.211 153.398C116.643 152.967 116.875 152.303 116.875 151.406C116.875 150.51 116.643 149.846 116.211 149.414C115.58 148.783 115.115 148.75 106.25 148.75C97.3848 148.75 96.9199 148.783 96.2891 149.414Z" fill="#D31D1D"/>
</g>
<defs>
<clipPath id="clip0_20_8">
<rect width="170" height="170" fill="white"/>
</clipPath>
</defs>
</svg>
