<svg width="16" height="17" viewBox="0 0 16 17" fill="none" xmlns="http://www.w3.org/2000/svg">
<mask id="mask0_23_806" style="mask-type:luminance" maskUnits="userSpaceOnUse" x="0" y="1" width="16" height="15">
<path d="M16 1H0V16H16V1Z" fill="white"/>
</mask>
<g mask="url(#mask0_23_806)">
<path d="M15.8045 14.933L11.2545 10.6674C12.1359 9.64681 12.6665 8.34993 12.6665 6.93746C12.6665 3.66374 9.82522 1 6.33325 1C2.84128 1 0 3.66371 0 6.93743C0 10.2112 2.84132 12.8749 6.33328 12.8749C7.83992 12.8749 9.22325 12.3774 10.3119 11.5511L14.8619 15.8167C14.9919 15.9386 15.1625 15.9999 15.3332 15.9999C15.5039 15.9999 15.6745 15.9386 15.8045 15.8167C16.0652 15.5724 16.0652 15.1774 15.8045 14.933ZM6.33328 11.6249C3.57597 11.6249 1.33333 9.52241 1.33333 6.93743C1.33333 4.35244 3.57597 2.24997 6.33328 2.24997C9.0906 2.24997 11.3332 4.35244 11.3332 6.93743C11.3332 9.52241 9.09057 11.6249 6.33328 11.6249Z" fill="#F63224"/>
</g>
</svg>
