<svg width="50" height="50" viewBox="0 0 50 50" fill="none" xmlns="http://www.w3.org/2000/svg">
<g clip-path="url(#clip0_4003_13)">
<path d="M25.0104 50.0208C38.8233 50.0208 50.0208 38.8233 50.0208 25.0104C50.0208 11.1975 38.8233 0 25.0104 0C11.1975 0 0 11.1975 0 25.0104C0 38.8233 11.1975 50.0208 25.0104 50.0208Z" fill="#2AABEE"/>
<path fill-rule="evenodd" clip-rule="evenodd" d="M11.3078 24.7397C18.5965 21.5743 23.4486 19.4711 25.8851 18.4506C32.8197 15.556 34.2774 15.0562 35.2145 15.0354C35.4228 15.0354 35.8809 15.0771 36.1933 15.3269C36.4432 15.5352 36.5057 15.8059 36.5473 16.0142C36.589 16.2224 36.6306 16.6597 36.589 16.9929C36.2141 20.9496 34.5898 30.5498 33.7568 34.9646C33.4028 36.8388 32.7156 37.4636 32.0492 37.526C30.5915 37.651 29.4877 36.5681 28.0925 35.6518C25.8851 34.2149 24.6564 33.3194 22.5115 31.9034C20.0334 30.279 21.6369 29.3836 23.0529 27.9259C23.4278 27.551 29.8209 21.7201 29.9459 21.1995C29.9667 21.137 29.9667 20.8871 29.8209 20.7622C29.6752 20.6372 29.4669 20.6789 29.3003 20.7205C29.0713 20.7622 25.5727 23.0945 18.7631 27.6968C17.7635 28.384 16.868 28.7172 16.0558 28.6964C15.1604 28.6756 13.4528 28.1966 12.1616 27.7801C10.5998 27.2803 9.35031 27.0096 9.45443 26.1349C9.51691 25.6768 10.1416 25.2187 11.3078 24.7397Z" fill="white"/>
</g>
<defs>
<clipPath id="clip0_4003_13">
<rect width="50" height="50" fill="white"/>
</clipPath>
</defs>
</svg>
