<svg width="50" height="50" viewBox="0 0 50 50" fill="none" xmlns="http://www.w3.org/2000/svg">
<circle cx="25" cy="25" r="25" fill="#2CB742"/>
<g clip-path="url(#clip0_208_23)">
<path fill-rule="evenodd" clip-rule="evenodd" d="M34.1055 15.7784C31.6731 13.3431 28.4382 12.0014 24.9917 12C17.8904 12 12.1107 17.7793 12.1079 24.8828C12.1069 27.1536 12.7002 29.37 13.8277 31.3238L11.9999 38L18.8298 36.2084C20.7116 37.2348 22.8303 37.7759 24.9866 37.7766H24.9919C24.9923 37.7766 24.9915 37.7766 24.992 37.7766C32.0925 37.7766 37.8726 31.9967 37.8756 24.8931C37.8769 21.4505 36.538 18.2136 34.1055 15.7784ZM24.9918 35.6007H24.9875C23.066 35.6 21.1814 35.0837 19.5372 34.1081L19.1462 33.876L15.0933 34.9391L16.1751 30.9876L15.9205 30.5824C14.8486 28.8775 14.2824 26.9069 14.2833 24.8835C14.2856 18.9794 19.0895 14.176 24.9961 14.176C27.8563 14.1769 30.545 15.2922 32.5668 17.3163C34.5886 19.3404 35.7014 22.0309 35.7002 24.8922C35.6978 30.7968 30.8941 35.6007 24.9918 35.6007Z" fill="white"/>
<path fill-rule="evenodd" clip-rule="evenodd" d="M30.8655 27.5806C30.5436 27.4195 28.9609 26.6408 28.6658 26.5333C28.3708 26.4259 28.1561 26.3722 27.9416 26.6945C27.727 27.0167 27.11 27.7418 26.9222 27.9567C26.7345 28.1715 26.5466 28.1985 26.2248 28.0372C25.9029 27.8761 24.8656 27.5362 23.636 26.4394C22.6789 25.5858 22.0329 24.5317 21.845 24.2093C21.6573 23.8871 21.8251 23.7129 21.9862 23.5523C22.1311 23.408 22.3082 23.1764 22.4692 22.9883C22.6301 22.8004 22.6838 22.666 22.7911 22.4513C22.8984 22.2364 22.8448 22.0484 22.7642 21.8874C22.6838 21.7262 22.04 20.1417 21.7717 19.497C21.5103 18.8694 21.245 18.9544 21.0473 18.9444C20.8599 18.9351 20.645 18.9331 20.4304 18.9331C20.2158 18.9331 19.867 19.0137 19.572 19.3359C19.2769 19.6583 18.4452 20.4371 18.4452 22.0215C18.4452 23.6061 19.5987 25.1369 19.7597 25.3516C19.9206 25.5666 22.0297 28.8181 25.259 30.2125C26.0271 30.5442 26.6267 30.7423 27.0942 30.8906C27.8654 31.1357 28.5672 31.101 29.1219 31.0182C29.7404 30.9257 31.0265 30.2394 31.2948 29.4875C31.563 28.7355 31.563 28.0909 31.4825 27.9567C31.4021 27.8224 31.1874 27.7418 30.8655 27.5806Z" fill="white"/>
</g>
<defs>
<clipPath id="clip0_208_23">
<rect width="26" height="26" fill="white" transform="translate(11.9999 12)"/>
</clipPath>
</defs>
</svg>
